# xmcd
#
# Track frame offsets:
#	150
#	931
#	33878
#	55053
#	75841
#	89629
#	112310
#	124999
#	155310
#	186823
#	199194
#	215689
#
# Disc length: 2907 seconds
#
# Revision: 2
# Processed by: cddbd v1.5.2PL0 Copyright (c) Steve Scherf et al.
# Submitted via: audiograbber 1.83.01
#
DISCID=980b590c
DTITLE=Ingrid Noll - Selige Witwen CD 6
DYEAR=2002
DGENRE=Hörbuch
TTITLE0=76
TTITLE1=77
TTITLE2=78
TTITLE3=79
TTITLE4=80
TTITLE5=81
TTITLE6=82
TTITLE7=83
TTITLE8=84
TTITLE9=85
TTITLE10=86
TTITLE11=87
EXTD=
EXTT0=
EXTT1=
EXTT2=
EXTT3=
EXTT4=
EXTT5=
EXTT6=
EXTT7=
EXTT8=
EXTT9=
EXTT10=
EXTT11=
PLAYORDER=
